<?xml version="1.0" standalone="no"?>
<!DOCTYPE svg PUBLIC "-//W3C//DTD SVG 1.0//EN" "http://www.w3.org/TR/2001/REC-SVG-20010904/DTD/svg10.dtd">
<svg xmlns="http://www.w3.org/2000/svg" xmlns:xlink="http://www.w3.org/1999/xlink" id="body_1" width="505" height="103">

<g transform="matrix(0.3331135 0 0 0.33333334 0 0)">
	<g>
		<g>
            <path d="M0 153.112L1515.561 153.112zM0 127.6L1515.561 127.6zM0 102.089L1515.561 102.089zM0 76.576996L1515.561 76.576996zM0 51.064995L1515.561 51.064995" stroke="#000000" stroke-width="2.392" fill="none" />
			<g>
                <path d="M46.177 163.929C 38.420998 164.031 33.217 170.562 33.217 175.46C 33.217 186.889 44.34 193.01201 53.218 193.01201C 61.381996 193.01201 73.832 187.195 73.832 175.97C 73.832 174.643 73.73 173.317 73.322 171.888L73.322 171.888L68.118 150.866C 81.689995 145.151 87.201 130.15 87.30299 122.190994L87.30299 122.190994L87.30299 121.68099C 87.30299 106.16999 77.09799 98.618 66.28099 96.98599C 65.15799 96.78199 63.83199 96.78199 62.50499 96.78199C 59.74999 96.78199 56.78999 97.08799 55.15799 97.69999L55.15799 97.69999L50.25999 79.024994C 62.60799 66.47299 70.15899 52.594994 70.15899 36.572994L70.15899 36.572994L70.15899 35.960995C 69.95499 18.306995 58.52599 1.7749939 54.23999 1.0609932C 49.64799 2.5919933 38.72899 20.347994 38.52499 34.02199L38.52499 34.02199L38.52499 35.144993C 38.52499 48.206993 41.89299 55.758995 44.54599 66.47399C 36.27999 75.04599 19.13599 93.413994 19.13599 113.313995C 19.13599 134.336 32.80999 152.704 56.076992 152.704C 59.335022 152.7025 62.58401 152.36064 65.770996 151.68399L65.770996 151.68399L70.87299 172.706C 71.15248 173.73682 71.28975 174.801 71.28099 175.86899C 71.28099 184.747 61.89299 190.564 53.42299 190.564C 48.11699 190.564 41.78999 185.972 41.278988 181.89C 42.503986 182.808 43.931988 183.115 45.36099 183.115C 50.46299 183.115 56.17799 178.625 56.17799 174.237C 56.17799 169.135 52.60599 164.134 46.17699 163.93L46.17699 163.93L46.17699 163.92899L46.177 163.929zM57.3 12.287003C 61.892 13.410003 65.26 25.859001 65.26 33.717003C 65.158005 44.840004 53.218002 57.392002 46.585003 64.535C 44.544003 56.167004 42.197002 50.044003 42.197002 37.288002C 42.197002 23.818 53.524002 12.695002 57.300003 12.286001L57.300003 12.286001L57.300003 12.287002zM52.197998 98.721C 43.421997 102.089005 40.053997 108.722 40.053997 117.498C 40.053997 118.518 40.053997 119.539 40.156 120.559C 41.073997 132.703 49.441998 139.336 54.239 140.662C 48.524 136.07 44.545 131.886 44.441998 124.334C 44.441998 117.395 47.400997 112.088 55.462997 110.251L55.462997 110.251L64.749 147.6C 62.402 148.31401 57.402 148.62001 53.932 148.62001C 52.809 148.62001 51.788998 148.62001 51.177 148.518C 34.237 146.783 26.276999 130.966 26.276999 117.29201C 26.378998 102.29101 44.338997 85.24901 48.217 80.96301L48.217 80.96301L52.197998 98.72101zM57.913 109.844C 59.851997 109.538 61.790997 109.334 63.628 109.334C 72.812 109.334 79.649 113.416 80.976 119.233C 81.383995 121.274 81.588 123.213005 81.588 125.152C 81.588 135.051 75.873 143.112 67.097 146.99L67.097 146.99L57.913002 109.84401z" stroke="#000000" stroke-width="1" fill="#000000" fill-rule="nonzero" />
                <path d="M255.915 140.56C 255.915 150.357 268.671 153.112 277.753 153.112L277.753 153.112L278.263 153.112C 286.835 153.01 299.387 150.255 299.387 140.356C 299.387 131.784 286.529 127.702 277.85498 127.702C 268.77298 127.702 255.91498 131.784 255.91498 140.56L255.91498 140.56L255.915 140.56zM269.181 132.498C 270.712 130.967 273.365 130.151 276.018 130.151C 278.161 130.151 280.30402 130.661 282.039 131.886C 285.305 134.233 287.856 140.254 287.856 144.642C 287.856 145.765 287.754 146.785 287.34598 147.601C 286.223 149.846 282.14197 151.479 278.36597 151.479C 276.73297 151.479 275.09998 151.173 273.87598 150.459C 270.20197 148.418 267.03897 143.112 267.03897 138.315C 267.03897 136.172 267.65097 134.131 269.18198 132.498L269.18198 132.498L269.18097 132.498z" stroke="#000000" stroke-width="1" fill="#000000" fill-rule="nonzero" />
                <path transform="matrix(1 0 0 1 -0 -25.511)"  d="M255.915 140.56C 255.915 150.357 268.671 153.112 277.753 153.112L277.753 153.112L278.263 153.112C 286.835 153.01 299.387 150.255 299.387 140.356C 299.387 131.784 286.529 127.702 277.85498 127.702C 268.77298 127.702 255.91498 131.784 255.91498 140.56L255.91498 140.56L255.915 140.56zM269.181 132.498C 270.712 130.967 273.365 130.151 276.018 130.151C 278.161 130.151 280.30402 130.661 282.039 131.886C 285.305 134.233 287.856 140.254 287.856 144.642C 287.856 145.765 287.754 146.785 287.34598 147.601C 286.223 149.846 282.14197 151.479 278.36597 151.479C 276.73297 151.479 275.09998 151.173 273.87598 150.459C 270.20197 148.418 267.03897 143.112 267.03897 138.315C 267.03897 136.172 267.65097 134.131 269.18198 132.498L269.18198 132.498L269.18097 132.498z" stroke="#000000" stroke-width="1" fill="#000000" fill-rule="nonzero" />
                <path transform="matrix(1 0 0 1 379.489 25.512)"  d="M255.915 140.56C 255.915 150.357 268.671 153.112 277.753 153.112L277.753 153.112L278.263 153.112C 286.835 153.01 299.387 150.255 299.387 140.356C 299.387 131.784 286.529 127.702 277.85498 127.702C 268.77298 127.702 255.91498 131.784 255.91498 140.56L255.91498 140.56L255.915 140.56zM269.181 132.498C 270.712 130.967 273.365 130.151 276.018 130.151C 278.161 130.151 280.30402 130.661 282.039 131.886C 285.305 134.233 287.856 140.254 287.856 144.642C 287.856 145.765 287.754 146.785 287.34598 147.601C 286.223 149.846 282.14197 151.479 278.36597 151.479C 276.73297 151.479 275.09998 151.173 273.87598 150.459C 270.20197 148.418 267.03897 143.112 267.03897 138.315C 267.03897 136.172 267.65097 134.131 269.18198 132.498L269.18198 132.498L269.18097 132.498z" stroke="#000000" stroke-width="1" fill="#000000" fill-rule="nonzero" />
                <path transform="matrix(1 0 0 1 558.869 -38.267)"  d="M255.915 140.56C 255.915 150.357 268.671 153.112 277.753 153.112L277.753 153.112L278.263 153.112C 286.835 153.01 299.387 150.255 299.387 140.356C 299.387 131.784 286.529 127.702 277.85498 127.702C 268.77298 127.702 255.91498 131.784 255.91498 140.56L255.91498 140.56L255.915 140.56zM269.181 132.498C 270.712 130.967 273.365 130.151 276.018 130.151C 278.161 130.151 280.30402 130.661 282.039 131.886C 285.305 134.233 287.856 140.254 287.856 144.642C 287.856 145.765 287.754 146.785 287.34598 147.601C 286.223 149.846 282.14197 151.479 278.36597 151.479C 276.73297 151.479 275.09998 151.173 273.87598 150.459C 270.20197 148.418 267.03897 143.112 267.03897 138.315C 267.03897 136.172 267.65097 134.131 269.18198 132.498L269.18198 132.498L269.18097 132.498z" stroke="#000000" stroke-width="1" fill="#000000" fill-rule="nonzero" />
                <path transform="matrix(1 0 0 1 890.522 -51.023)"  d="M255.915 140.56C 255.915 150.357 268.671 153.112 277.753 153.112L277.753 153.112L278.263 153.112C 286.835 153.01 299.387 150.255 299.387 140.356C 299.387 131.784 286.529 127.702 277.85498 127.702C 268.77298 127.702 255.91498 131.784 255.91498 140.56L255.91498 140.56L255.915 140.56zM269.181 132.498C 270.712 130.967 273.365 130.151 276.018 130.151C 278.161 130.151 280.30402 130.661 282.039 131.886C 285.305 134.233 287.856 140.254 287.856 144.642C 287.856 145.765 287.754 146.785 287.34598 147.601C 286.223 149.846 282.14197 151.479 278.36597 151.479C 276.73297 151.479 275.09998 151.173 273.87598 150.459C 270.20197 148.418 267.03897 143.112 267.03897 138.315C 267.03897 136.172 267.65097 134.131 269.18198 132.498L269.18198 132.498L269.18097 132.498z" stroke="#000000" stroke-width="1" fill="#000000" fill-rule="nonzero" />
                <path transform="matrix(1 0 0 1 1070.699 -12.755)"  d="M255.915 140.56C 255.915 150.357 268.671 153.112 277.753 153.112L277.753 153.112L278.263 153.112C 286.835 153.01 299.387 150.255 299.387 140.356C 299.387 131.784 286.529 127.702 277.85498 127.702C 268.77298 127.702 255.91498 131.784 255.91498 140.56L255.91498 140.56L255.915 140.56zM269.181 132.498C 270.712 130.967 273.365 130.151 276.018 130.151C 278.161 130.151 280.30402 130.661 282.039 131.886C 285.305 134.233 287.856 140.254 287.856 144.642C 287.856 145.765 287.754 146.785 287.34598 147.601C 286.223 149.846 282.14197 151.479 278.36597 151.479C 276.73297 151.479 275.09998 151.173 273.87598 150.459C 270.20197 148.418 267.03897 143.112 267.03897 138.315C 267.03897 136.172 267.65097 134.131 269.18198 132.498L269.18198 132.498L269.18097 132.498z" stroke="#000000" stroke-width="1" fill="#000000" fill-rule="nonzero" />
			</g>
		</g>
		<text transform="matrix(1 0 0 1 0 0)" x="202.21948" y="262.956" style="fill:#000000;font-family:Noto Sans JP;font-weight:bold;" font-size="37">
和声音程
		</text>
		<text transform="matrix(1 0 0 1 0 0)" x="649.2195" y="256.956" style="fill:#000000;font-family:Noto Sans JP;font-weight:bold;" font-size="37">
上行旋律音程
		</text>
		<text transform="matrix(1 0 0 1 0 0)" x="1151.2195" y="250.956" style="fill:#000000;font-family:Noto Sans JP;font-weight:bold;" font-size="37">
下行旋律音程
		</text>
	</g>
</g>
</svg>